<svg xmlns="http://www.w3.org/2000/svg" width="320" height="320" viewBox="0 0 360 360">
  <!-- Light variant of the nature doodles, for dark backgrounds (login screen). -->
  <g fill="none" stroke="#dfe9d6" stroke-width="0.8" stroke-linecap="round" stroke-linejoin="round" opacity="0.16">

    <g transform="translate(26,30) scale(2.4) rotate(-12)">
      <path d="M11 20A7 7 0 0 1 9.8 6.1C15.5 5 17 4.48 19 2c1 2 2 4.18 2 8 0 5.5-4.78 10-10 10Z"/>
      <path d="M2 21c0-3 1.85-5.36 5.08-6C9.5 14.52 12 13 13 12"/>
    </g>

    <g transform="translate(214,26) scale(2.6)">
      <path d="M16 7h.01"/>
      <path d="M3.4 18H12a8 8 0 0 0 8-8V7a4 4 0 0 0-7.28-2.3L2 20"/>
      <path d="m20 7 2 .5-2 .5"/>
      <path d="M10 18v3"/>
      <path d="M14 17.75V21"/>
      <path d="M7 18a6 6 0 0 0 3.84-10.61"/>
    </g>

    <g transform="translate(34,236) scale(2.2)">
      <path d="M12 5a3 3 0 1 1 3 3m-3-3a3 3 0 1 0-3 3m3-3v1M9 8a3 3 0 1 0 3 3M9 8h1m5 0a3 3 0 1 1-3 3m3-3h-1m-2 3v-1"/>
      <circle cx="12" cy="8" r="2"/>
      <path d="M12 10v12"/>
      <path d="M12 22c4.2 0 7-1.667 7-5-4.2 0-7 1.667-7 5Z"/>
      <path d="M12 22c-4.2 0-7-1.667-7-5 4.2 0 7 1.667 7 5Z"/>
    </g>

    <g transform="translate(160,196) scale(2.5)">
      <path d="M14 9.536V7a4 4 0 0 1 4-4h1.5a.5.5 0 0 1 .5.5V5a4 4 0 0 1-4 4 4 4 0 0 0-4 4c0 2 1 3 1 5a5 5 0 0 1-1 3"/>
      <path d="M4 9a5 5 0 0 1 8 4 5 5 0 0 1-8-4"/>
      <path d="M5 21h14"/>
    </g>

    <g transform="translate(250,250) scale(2.3) rotate(8)">
      <path d="M6.5 12c.94-3.46 4.94-6 8.5-6 3.56 0 6.06 2.54 7 6-.94 3.47-3.44 6-7 6s-7.56-2.53-8.5-6Z"/>
      <path d="M18 12v.5"/>
      <path d="M16 17.93a9.77 9.77 0 0 1 0-11.86"/>
      <path d="M7 10.67C7 8 5.58 5.97 2.73 5.5c-1 1.5-1 5 .23 6.5-1.24 1.5-1.24 5-.23 6.5C5.58 18.03 7 16 7 13.33"/>
      <path d="M10.46 7.26C10.2 5.88 9.17 4.24 8 3h5.8a2 2 0 0 1 1.98 1.67l.23 1.4"/>
      <path d="m16.01 17.93-.23 1.4A2 2 0 0 1 13.8 21H9.5a5.96 5.96 0 0 0 1.49-3.98"/>
    </g>

    <g transform="translate(316,150) scale(1.8) rotate(140)">
      <path d="M11 20A7 7 0 0 1 9.8 6.1C15.5 5 17 4.48 19 2c1 2 2 4.18 2 8 0 5.5-4.78 10-10 10Z"/>
      <path d="M2 21c0-3 1.85-5.36 5.08-6C9.5 14.52 12 13 13 12"/>
    </g>

  </g>
</svg>
